<svg width="65px" height="65px" viewBox="0 0 65 65" xmlns="http://www.w3.org/2000/svg" fill="white">
  <g fill="white">
    <path d="M32.5 0a2 2 0 012 2v8a2 2 0 11-4 0V2a2 2 0 012-2z"/>
    <path d="M32.5 55a2 2 0 012 2v6a2 2 0 11-4 0v-6a2 2 0 012-2z"/>
    <path d="M63 30.5a2 2 0 010 4h-8a2 2 0 110-4h8z"/>
    <path d="M10 32.5a2 2 0 01-2 2H2a2 2 0 110-4h6a2 2 0 012 2z"/>
    <path d="M50.91 12.09a2 2 0 012.83 0l4.24 4.24a2 2 0 11-2.83 2.83l-4.24-4.24a2 2 0 010-2.83z"/>
    <path d="M12.09 50.91a2 2 0 012.83 0l4.24 4.24a2 2 0 11-2.83 2.83l-4.24-4.24a2 2 0 010-2.83z"/>
    <path d="M12.09 12.09a2 2 0 000 2.83l4.24 4.24a2 2 0 102.83-2.83l-4.24-4.24a2 2 0 00-2.83 0z"/>
    <path d="M50.91 50.91a2 2 0 000 2.83l4.24 4.24a2 2 0 002.83-2.83l-4.24-4.24a2 2 0 00-2.83 0z"/>
    <circle cx="32.5" cy="32.5" r="8" fill-opacity="0.5"/>
  </g>
</svg>
